<?xml version="1.0" encoding="UTF-8"?>
<svg width="32" height="32" viewBox="0 0 32 32" fill="none" xmlns="http://www.w3.org/2000/svg">
  <circle cx="16" cy="16" r="14" fill="#4A90E2"/>
  <path d="M16 7C11.0294 7 7 11.0294 7 16C7 20.9706 11.0294 25 16 25C18.1247 25 20.0937 24.2108 21.6569 22.8995L23.5 24.7426L24.7426 23.5L22.8995 21.6569C24.2108 20.0937 25 18.1247 25 16C25 11.0294 20.9706 7 16 7ZM16 23C12.134 23 9 19.866 9 16C9 12.134 12.134 9 16 9C19.866 9 23 12.134 23 16C23 19.866 19.866 23 16 23Z" fill="white"/>
</svg> 